<?xml version="1.0" encoding="UTF-8" standalone="no"?>
<!-- Created with Inkscape (http://www.inkscape.org/) -->
<svg id="svg4271" xmlns:rdf="http://www.w3.org/1999/02/22-rdf-syntax-ns#" xmlns="http://www.w3.org/2000/svg" height="169.15mm" width="169.16mm" version="1.1" xmlns:cc="http://creativecommons.org/ns#" xmlns:dc="http://purl.org/dc/elements/1.1/" viewBox="0 0 599.39341 599.34972">
 <metadata id="metadata4276">
  <rdf:RDF>
   <cc:Work rdf:about="">
    <dc:format>image/svg+xml</dc:format>
    <dc:type rdf:resource="http://purl.org/dc/dcmitype/StillImage"/>
    <dc:title/>
   </cc:Work>
  </rdf:RDF>
 </metadata>
 <g id="layer1" transform="translate(122.55 -318.4)">
  <g id="wheel" transform="translate(538.79 275.26)">
   <title id="title4269">wheel</title>
   <g>
    <path id="path4222" d="m-604.61 167.53a299 299 0 0 0 -56.738 175.76l298.63-0.009-241.89-175.75z" fill="#4479c7"/>
    <path id="path4224" d="m-661.24 343.82a299 299 0 0 0 57.404 175.54l241.59-175.54h-299z" fill="#0f0"/>
    <path id="path4226" d="m-603.43 519.72a299 299 0 0 0 149.62 108.27l92.274-284.02-241.89 175.75z" fill="#00f"/>
    <path id="path4228" d="m-453.28 628.05a299 299 0 0 0 184.69 -0.35018l-92.291-284.01-92.395 284.36z" fill="#008080"/>
    <path id="path4230" d="m-268.12 627.43a299 299 0 0 0 149.21 -108.84l-241.61-175.52 92.4 284.36z" fill="#ff0"/>
    <path id="path4232" d="m-118.69 518.1a299 299 0 0 0 56.738 -175.76l-298.63 0.009 241.89 175.75z" fill="#d40000"/>
    <path id="path4234" d="m-62.063 341.82a299 299 0 0 0 -57.407 -175.54l-241.59 175.54h299z" fill="#f0f"/>
    <path id="path4236" d="m-119.87 165.92a299 299 0 0 0 -149.62 -108.28l-92.274 284.02 241.89-175.75z" fill="#0ff"/>
    <path id="path4238" d="m-270.02 57.584a299 299 0 0 0 -184.69 0.35018l92.291 284.01 92.395-284.36z" fill="#0f0"/>
    <path id="path4240" d="m-455.18 58.202a299 299 0 0 0 -149.21 108.84l241.6 175.52-92.395-284.36z" fill="#f00"/>
   </g>
  </g>
 </g>
</svg>
