<?xml version="1.0" encoding="UTF-8" standalone="no"?>
<!-- Created with Inkscape (http://www.inkscape.org/) -->
<svg id="svg2" xmlns:rdf="http://www.w3.org/1999/02/22-rdf-syntax-ns#" xmlns="http://www.w3.org/2000/svg" height="61.048mm" width="53.167mm" version="1.1" xmlns:cc="http://creativecommons.org/ns#" xmlns:dc="http://purl.org/dc/elements/1.1/" viewBox="0 0 188.38782 216.31349">
 <metadata id="metadata7">
  <rdf:RDF>
   <cc:Work rdf:about="">
    <dc:format>image/svg+xml</dc:format>
    <dc:type rdf:resource="http://purl.org/dc/dcmitype/StillImage"/>
    <dc:title/>
   </cc:Work>
  </rdf:RDF>
 </metadata>
 <g id="layer1" transform="translate(522.77 -735.63)">
  <g id="g104" transform="matrix(1.25 0 0 -1.25 -429.53 951.88)">
   <path id="path106" d="m0 0c-30.704 1.107-53.418 14.913-66.831 42.956-12.982 27.141-9.161 53.031 7.672 77.04 7.741 11.04 18.87 18.699 31.312 24.156 3.59 1.575 6.326 3.999 8.818 7.097 5.489 6.823 11.453 13.262 17.146 19.923 2.002 2.343 3.357 2.571 5.469-0.149 5.79-7.456 11.972-14.606 17.865-21.985 3.067-3.839 7.76-4.637 11.734-6.763 12.218-6.533 22.524-14.832 30.382-26.691 8.334-12.58 11.803-26.265 12.493-40.781 0.582-12.24-2.939-23.786-8.625-34.677-10.016-19.185-25.903-31.104-46.185-37.599-6.854-2.195-13.951-2.786-21.25-2.533" fill="#ededed"/>
  </g>
  <g id="g108" transform="matrix(1.25 0 0 -1.25 -429.44 942.05)">
   <path id="path110" d="m0 0c-27.913 1.007-48.562 13.558-60.756 39.051-11.801 24.673-8.328 48.21 6.975 70.036 7.038 10.037 17.155 17 28.466 21.96 3.263 1.432 5.751 3.635 8.016 6.452 4.99 6.203 10.411 12.057 15.587 18.112 1.82 2.13 3.052 2.337 4.972-0.135 5.264-6.779 10.884-13.279 16.241-19.987 2.788-3.49 7.054-4.215 10.668-6.148 11.107-5.939 20.476-13.483 27.619-24.264 7.577-11.438 10.73-23.875 11.358-37.072 0.529-11.127-2.672-21.623-7.841-31.524-9.106-17.441-23.548-28.277-41.987-34.182-6.231-1.995-12.682-2.532-19.318-2.302" fill="#b4b3b3"/>
  </g>
  <g id="g112" transform="matrix(1.25 0 0 -1.25 -397.73 832.92)">
   <path id="path114" d="m0 0c-0.003-3.824 0-7.647-0.003-11.471-0.004-3.294-1.54-5.431-4.896-5.655-3.625-0.242-5.76 1.848-5.848 5.325-0.197 7.807-0.227 15.628 0.003 23.434 0.098 3.336 2.063 5.721 5.762 5.453 3.612-0.262 5.104-2.554 5.007-6.114-0.1-3.655-0.022-7.315-0.025-10.972" fill="#1e1f1f"/>
  </g>
  <g id="g116" transform="matrix(1.25 0 0 -1.25 -447.51 833.32)">
   <path id="path118" d="m0 0c0-3.82 0.039-7.641-0.012-11.46-0.043-3.335-1.649-5.339-5.126-5.374-3.452-0.034-5.235 1.892-5.27 5.234-0.083 7.971-0.088 15.944-0.012 23.916 0.032 3.428 2 5.151 5.397 5.062 3.129-0.082 4.958-1.679 4.994-4.924 0.046-4.151 0.011-8.302 0.011-12.454h0.018" fill="#1d1d1e"/>
  </g>
  <g id="g120" transform="matrix(1.25 0 0 -1.25 -384.05 865.45)">
   <path id="path122" d="m0 0c-24.751-16.161-66.022-11.383-81.905 10.013 25.386-20.522 52.228-22.507 80.694-9.007 1.093 0.494 1.301-0.076 1.211-1.006" fill="#686969"/>
  </g>
  <g id="g124" transform="matrix(1.25 0 0 -1.25 -462.81 788.39)">
   <path id="path126" d="m0 0c-1.021 0.256-2.702-0.526-3.006 1.481-0.342 2.256 5.189 5.759 8.982 5.714 1.329-0.016 2.836 0.141 2.941-1.776 0.114-2.105-5.239-5.367-8.917-5.419" fill="#3d3d3d"/>
  </g>
  <g id="g128" transform="matrix(1.25 0 0 -1.25 -394.99 789.64)">
   <path id="path130" d="m0 0c-0.165 0.003-0.336-0.026-0.493 0.007-3.44 0.734-6.686 1.804-8.164 5.433-0.335 0.825-0.019 1.655 1.034 1.81 3.736 0.551 6.716-1.019 9.323-3.473 0.857-0.808 1.536-1.914 0.969-3.09-0.516-1.068-1.742-0.559-2.669-0.687" fill="#3f3f3f"/>
  </g>
  <g id="g132" transform="matrix(1.25 0 0 -1.25 -384.05 865.45)">
   <path id="path134" d="m0 0c-0.403 0.335-0.807 0.67-1.211 1.006 4.9 3.441 9.526 7.217 13.959 11.269-3.211-5.172-7.42-9.297-12.748-12.275" fill="#757474"/>
  </g>
  <g id="g136" transform="matrix(1.25 0 0 -1.25 -351.21 836.5)">
   <path id="path138" d="m0 0c-4.22 2.4-7.906-0.196-11.952-1.355 3.809 5.087 8.266 5.609 11.952 1.355" fill="#717071"/>
  </g>
  <g id="g140" transform="matrix(1.25 0 0 -1.25 -503.52 836.78)">
   <path id="path142" d="m0 0c4.406 4.121 7.34 3.644 12.974-1.993-4.597 0.984-8.373 4.542-12.974 1.993" fill="#737272"/>
  </g>
 </g>
</svg>
