<?xml version="1.0" encoding="UTF-8" standalone="no"?>
<!-- Created with Inkscape (http://www.inkscape.org/) -->
<svg id="svg4180" xmlns:rdf="http://www.w3.org/1999/02/22-rdf-syntax-ns#" xmlns="http://www.w3.org/2000/svg" height="200mm" width="200mm" version="1.1" xmlns:cc="http://creativecommons.org/ns#" xmlns:dc="http://purl.org/dc/elements/1.1/" viewBox="0 0 708.66121 708.65747">
 <metadata id="metadata4185">
  <rdf:RDF>
   <cc:Work rdf:about="">
    <dc:format>image/svg+xml</dc:format>
    <dc:type rdf:resource="http://purl.org/dc/dcmitype/StillImage"/>
    <dc:title/>
   </cc:Work>
  </rdf:RDF>
 </metadata>
 <g id="layer1" transform="translate(700.04 7.6808)">
  <g id="g20" transform="matrix(1.25 0 0 -1.25 8.6163 346.65)">
   <path id="path22" d="m0 0c0-156.55-126.91-283.46-283.46-283.46s-283.46 126.91-283.46 283.46 126.91 283.46 283.46 283.46 283.46-126.91 283.46-283.46" fill="#9e9e9e"/>
  </g>
  <g id="g4371" transform="matrix(1.25 0 0 -1.25 -1134 865.39)">
   <g id="g24" transform="translate(632.69 146.13)">
    <path id="path26" d="m0 0c-26.547-1.137-52.446 2.923-77.781 10.451-53.289 15.835-97.756 45.079-132.75 88.457-0.176 1.923 0.417 3.675 1.198 5.391 2.82 3.671 6.41 5.501 11.12 4.67 5.381-3.805 8.918-9.387 13.443-14.001 28.759-29.322 62.025-51.649 101.04-65.279 24.803-8.665 50.28-12.939 76.392-14.154 3.196-0.149 6.278-0.538 8.344-3.443 1.833-4.217 2.551-8.336-1.006-12.093" fill="#693b8b"/>
   </g>
   <g id="g28" transform="translate(632.69 146.13)">
    <path id="path30" d="m0 0c-0.219 4.149-0.439 8.298-0.658 12.447 0.181 0.328 0.361 0.657 0.538 0.987 2.274 2.359 5.274 2.027 8.13 2.149 60.436 2.572 113.38 23.741 158.89 63.664 7.26 6.369 14.29 12.831 20.402 20.341 3.154 3.876 6.467 7.859 11.53 9.588 4.775-0.827 9.259-1.995 9.313-8.19-42.07-52.355-96.21-84.612-162.13-97.063-15.167-2.865-30.493-4.743-46.01-3.927" fill="#e64180"/>
   </g>
   <g id="g32" transform="translate(514.4 657.14)">
    <path id="path34" d="m0 0c24.131 12.888 50.133 19.973 76.976 23.936 48.803 7.206 96.126 1.208 141.85-17.275 4.677-1.891 9.444-3.674 13.519-6.795 2.248-3.02 1.433-5.584-1.168-7.883-0.782-0.373-1.606-0.487-2.462-0.357-20.811 11.739-43.54 17.738-66.801 22.048-13.489 2.499-27.148 4.189-40.835 4.284-36.485 0.251-71.76-6.292-105.59-20.251-4.506-1.857-9.039-5.097-14.387-2.234-1.551 1.223-1.956 2.723-1.103 4.527" fill="#d7b033"/>
   </g>
   <g id="g36" transform="translate(744.62 649.63)">
    <path id="path38" d="m0 0c0.711 2.458 1.421 4.915 2.132 7.374 6.395-1.006 11.541-4.782 16.897-7.922 65.093-38.164 107.88-93.504 127.75-166.41 0.752-2.76 1.933-5.506 1.113-8.49-0.784-2.796-2.756-3.508-5.379-3.081-0.725 0.218-1.366 0.597-1.922 1.111-3.671 20.253-11.003 39.256-19.962 57.694-11.03 22.699-25.423 42.971-42.545 61.566-19.794 21.504-42.702 38.693-67.942 53.088-3.313 1.889-7.561 1.821-10.143 5.076" fill="#cb5f2b"/>
   </g>
   <g id="g40" transform="translate(514.4 657.14)">
    <path id="path42" d="m0 0c0.537-1.166 1.074-2.332 1.612-3.498 1.388-1.011 1.505-2.34 0.968-3.836-17.75-7.12-33.524-17.622-48.391-29.394-19.331-15.306-36.084-33.153-50.645-53.13-18.072-24.796-30.543-52.208-39.877-81.272-1.688-5.254-0.691-10.242-0.899-15.365-1.489-1.489-3.283-1.687-5.23-1.245-1.982 0.466-3.242 1.889-4.462 3.366 19.36 82.403 66.836 143.03 141.48 182.59 1.658 0.869 3.618 1.191 5.44 1.774" fill="#298744"/>
   </g>
   <g id="g44" transform="translate(887.3 472.48)">
    <path id="path46" d="m0 0c1.736 0.57 3.471 1.14 5.206 1.711 5.356-13.945 6.219-28.701 6.997-43.311 3.535-66.424-14.749-126.33-54.763-179.53-1.148-1.526-2.598-2.825-3.906-4.229-2.903 2.457-5.108 5.842-9.104 6.844-6.06-0.449-8.774 4.928-13.063 7.552-3.232 1.978-5.903 4.732-8.809 7.146-2.165 1.798-4.069 4.137-2.444 7.404 4.657 2.797 7.688-0.853 10.655-3.141 5.979-4.611 11.897-9.327 17.638-14.24 4.441-2.461 6.636 0.528 8.792 3.605 13.609 19.422 24.36 40.327 32.324 62.652 7.96 22.315 12.123 45.364 14.513 68.938 2.432 24-0.067 47.464-4.294 70.946-0.451 2.515-1.623 5.182 0.258 7.666" fill="#cc2b2e"/>
   </g>
   <g id="g48" transform="translate(367.48 472.77)">
    <path id="path50" d="m0 0c1.467-0.427 2.935-0.853 4.402-1.28 2.515-2.879 2.028-6.133 1.447-9.55-3.355-19.723-5.312-39.578-4.422-59.601 1.847-41.558 12.879-80.517 32.993-116.99 6.988-12.672 15.508-24.309 23.053-36.592-0.357-1.667-1.495-2.746-2.787-3.712-28.5 33.72-46.236 72.605-55.261 115.62-7.847 37.384-7.123 74.768 0.575 112.1" fill="#2a508f"/>
   </g>
   <g id="g52" transform="translate(632.04 158.58)">
    <path id="path54" d="m0 0c-59.806 0.02-112.97 18.883-159.77 56.06-13.064 10.378-25.216 21.621-35.819 34.521-1.24 1.509-2.54 2.908-2.82 4.932-0.49 0.549-0.729 1.196-0.759 1.928 3.312 7.823 10.977 11.225 17.006 16.09 39.091 31.552 78.262 63.005 117.42 94.481 17.422 14.006 34.639 28.279 52.36 41.903 3.685 2.834 7.244 7.591 13.266 5.144 0.574-0.669 0.949-1.411 1.156-2.263 1.124-4.733 1.445-9.511 1.443-14.348-0.027-74.62 0.008-149.26-0.077-223.89-0.006-4.939 1.07-10.229-2.812-14.475l-0.596-0.075z" fill="#7d519a"/>
   </g>
   <g id="g56" transform="translate(434.01 255.49)">
    <path id="path58" d="m0 0c-0.128-0.466-0.256-0.931-0.384-1.397-2.894-1.783-5.786-3.565-8.679-5.343-3.45-0.109-5.08 2.449-6.76 4.771-28.71 39.709-46.499 83.561-51.316 132.61-2.828 28.797-1.001 57.159 5.003 85.358 1.929-0.135 3.854-0.27 5.779-0.404 2.167 1.103 3.893 0.467 5.322-1.343 3.38-8.743-0.614-17.133-1.662-25.546-3.71-29.763-1.621-59.057 5.291-88.113 8.199-34.47 22.866-65.893 44.369-94.091 1.478-1.938 2.449-4.141 3.037-6.509" fill="#2d5ca5"/>
   </g>
   <g id="g60" transform="translate(632.63 158.65)">
    <path id="path62" d="m0 0c-0.165 9.386-0.462 18.772-0.475 28.158-0.102 73.005-0.153 146.01-0.196 219.02-0.001 2.4 0.253 4.799 0.388 7.198 0.362 0.643 0.902 0.997 1.647 1.019 12.23-5.574 21.385-15.369 31.779-23.425 29.057-22.522 57.728-45.538 86.554-68.357 12.24-9.69 24.505-19.351 36.544-29.297 5.334-6.179 13.327-9.392 18.106-16.189l0.189-1.005c5.409-6.567 12.849-10.741 19.192-16.212 1.993-1.719 3.982-3.346 5.374-5.598-42.05-50.559-95.08-82.123-160.26-92.605-12.855-2.067-25.786-3.369-38.84-2.707" fill="#db5c9d"/>
   </g>
   <g id="g64" transform="translate(516.35 649.63)">
    <path id="path66" d="m0 0c-0.114 1.341-0.228 2.681-0.341 4.02 7.934 2.827 15.92 5.516 23.789 8.512 22.473 8.555 45.755 12.918 69.676 15.08 43.965 3.973 85.865-3.716 126.36-20.528 3.442-1.429 7.78-2.053 7.795-7.241 1.882-2.574 0.994-4.624-1.209-6.431-0.767-0.35-1.576-0.484-2.416-0.424-23.74 11.029-48.61 18.223-74.54 21.794-31.84 4.386-63.288 2.262-94.53-5.205-16.944-4.049-32.754-11.154-49.099-16.816-0.807-0.131-1.598-0.065-2.376 0.18-2.74 1.598-3.586 4.038-3.105 7.059" fill="#f3c839"/>
   </g>
   <g id="g68" transform="translate(742.31 643.81)">
    <path id="path70" d="m0 0c0.442 1.888 0.884 3.775 1.326 5.662 0.326 0.081 0.656 0.136 0.988 0.162 3.724 1.987 6.914 0.405 10.203-1.349 23.349-12.456 44.65-27.954 63.168-46.656 33.528-33.862 57.103-73.794 68.791-120.33 0.763-3.036 1.893-6.133-1.314-8.561-0.477-1.623-1.604-2.38-3.25-2.448-0.743 0.071-1.409 0.341-1.999 0.796-2.39 3.074-3.882 6.53-4.936 10.306-10.89 38.98-30.16 73.2-57.339 103.31-20.157 22.331-43.848 39.633-70.028 53.926-2.277 1.243-5.003 2.085-5.613 5.174" fill="#ec6e30"/>
   </g>
   <g id="g72" transform="translate(882.66 471.2)">
    <path id="path74" d="m0 0c0.937 0.513 1.873 1.026 2.809 1.538 0.608-0.087 1.217-0.172 1.829-0.259 4.313-5.152 4.193-11.733 5.126-17.748 5.997-38.653 3.285-76.775-7.221-114.48-8.52-30.584-22.737-58.25-40.7-84.233-4.837-6.996-7.651-2.243-11.06 0.997-1.093 3.985 0.997 6.968 3.151 9.911 27.296 37.289 42.764 79.225 46.684 125.01 1.945 22.724 1.561 45.739-3.086 68.389-0.763 3.713-2.583 8.226 2.468 10.872" fill="#e43135"/>
   </g>
   <g id="g76" transform="translate(516.35 649.63)">
    <path id="path78" d="m0 0c2.218-1.266 2.619-3.648 3.516-5.725-1.13-3.485-3.856-5.341-6.915-6.933-24.576-12.788-46.31-29.442-65.057-49.718-28.383-30.698-48.831-66-59.536-106.67-0.964-3.663-1.251-7.669-4.201-10.581-0.629-0.447-1.323-0.601-2.081-0.474-1.478 0.52-2.956 1.04-4.428 1.558-5.223 1.836-5.609 5.32-4.223 10.225 10.958 38.792 28.772 73.856 55.069 104.63 22.352 26.159 48.41 47.505 78.857 63.504 2.948 1.558 5.923 3.798 8.994 0.186" fill="#2da750"/>
   </g>
   <g id="g80" transform="translate(882.66 471.2)">
    <path id="path82" d="m0 0c-0.722-9.721 2.547-18.965 3.416-28.527 3.926-43.182-0.706-85.062-17.391-125.34-8.998-21.722-20.652-41.877-35.242-60.324-7.079 5.404-14.176 10.783-21.22 16.231-1.542 1.193-2.973 2.476-5.057 2.527 0.001 0.001 0.183-0.052 0.183-0.052-6.671 5.031-12.549 11.124-20.096 14.979-26.884 21.159-53.826 42.244-80.634 63.498-24.731 19.607-49.318 39.394-73.968 59.102 0.744 4.578 4.808 5.216 8.055 5.996 31.56 7.583 63.241 14.658 94.845 22.053 27.621 6.464 55.288 12.725 82.922 19.129 18.494 4.286 36.986 8.599 55.522 12.709 2.79 0.618 5.237 0.445 7.355-1.618 0.451-0.117 0.887-0.239 1.321-0.371" fill="#e73c42"/>
   </g>
   <g id="g84" transform="translate(881.35 471.57)">
    <path id="path86" d="m0 0c-80.408-18.586-160.82-37.164-241.22-55.788-2.549-0.59-4.99-1.645-7.483-2.482-0.002 0.001-0.303-0.273-0.304-0.272-0.283 0.398-0.665 0.557-1.146 0.479-0.718 0.24-1.188 0.714-1.37 1.459-0.035 0.728 0.082 1.429 0.367 2.101 4.807 15.517 13.116 29.483 20.074 43.996 19.081 39.796 37.867 79.734 57.141 119.44 8.948 18.433 17.735 36.956 26.481 55.493 1.483 3.145 2.564 7.008 7.027 7.517 0.463 0.092 0.924 0.192 1.383 0.3 8.253-0.997 14.647-6.155 21.289-10.263 61.292-37.9 100.54-91.972 117.76-161.98" fill="#f4973b"/>
   </g>
   <g id="g88" transform="translate(630.75 414.26)">
    <path id="path90" d="m0 0c0.301-0.162 0.451-0.414 0.449-0.757-41.292-33.138-82.572-66.293-123.88-99.408-24.411-19.568-48.872-39.073-73.308-58.606-2.421 0.165-3.749 1.766-5.115 3.569-27.681 36.525-44.42 77.391-50.509 122.92-3.949 29.535-1.941 58.553 3.686 87.548 0.37 0.18 0.746 0.33 1.134 0.45 3.107 2.231 6.396 1.4 9.738 0.686 39.157-8.364 78.141-17.5 117.24-26.141 35.561-7.858 71.052-16.05 106.64-23.802 5.047-1.099 10.607-1.477 13.93-6.461" fill="#3a7abd"/>
   </g>
   <g id="g92" transform="translate(787.25 290.7)">
    <path id="path94" d="m0 0c8.499-2.577 14.262-8.826 20.096-14.979-7.705 3.643-13.41 9.968-20.096 14.979" fill="#cc2b2e"/>
   </g>
   <g id="g96" transform="translate(630.75 414.26)">
    <path id="path98" d="m0 0c-45.417 10.076-90.841 20.12-136.25 30.239-35.765 7.97-71.51 16.029-107.26 24.078-1.385 0.311-2.7 0.93-4.045 1.405 1.396 15.322 7.104 29.4 12.882 43.391 13.892 33.643 34.453 62.83 60.943 87.64 18.662 17.479 39.149 32.613 62.837 42.891 0.273-0.02 0.537-0.074 0.793-0.162 3.219-0.727 4.578-3.304 5.878-5.929 24.392-49.263 48.313-98.756 72.165-148.28 9.938-20.635 20.21-41.11 30.05-61.796 1.793-3.741 3.542-7.403 2.98-11.698l-0.965-1.776z" fill="#54b36a"/>
   </g>
   <g id="g100" transform="translate(631.72 416.04)">
    <path id="path102" d="m0 0c-1.876 1.005-2.358 2.991-3.181 4.686-35.579 73.207-71.134 146.43-106.67 219.65-0.518 1.067-0.809 2.244-1.205 3.369 7.595 5.881 16.786 8.409 25.556 11.568 33.314 11.998 67.868 16.752 103.08 14.278 30.191-2.122 59.514-8.906 87.193-21.723 2.059-0.954 3.865-1.973 4.433-4.356-15.193-32.04-30.349-64.09-45.601-96.09-20.444-42.895-40.959-85.756-61.479-128.61-0.492-1.032-1.404-1.859-2.12-2.78" fill="#fade49"/>
   </g>
   <g id="g104" transform="translate(653.89 589.82)">
    <path id="path106" d="m0 0c0.585 0.435 1.133 0.934 1.76 1.294 2.129 1.222 4.101 0.346 4.446-2.078 0.174-1.222 0.117-2.529-0.107-3.747-0.605-3.308-1.994-6.284-4.259-8.803-1.035-1.152-2.218-2.018-3.884-2.156-0.382-0.031-0.826-0.842-1.019-1.374-1.303-3.6-3.279-6.734-6.402-8.995-2.32-1.68-4.749-3.215-7.176-4.74-2.878-1.807-6.129-2.305-9.096-0.81-4.798 2.418-9.531 5.136-12.689 9.716-1.142 1.656-1.813 3.632-2.76 5.43-0.191 0.36-0.626 0.645-1.012 0.839-0.989 0.495-2.249 0.682-2.983 1.413-3.441 3.421-5.306 7.6-5.2 12.506 0.064 2.989 2.285 4.147 4.832 2.631 0.333-0.199 0.631-0.46 0.937-0.704 0.196-0.156 0.375-0.334 0.886-0.387-0.613 3.076-1.006 6.218-1.895 9.213-1.122 3.778-2.67 7.428-3.992 11.149-0.65 1.83-1.143 3.674 0.324 5.42 0.184 0.219 0.042 0.726 0.022 1.097-0.113 2.105-0.526 4.244-0.289 6.307 0.388 3.374 2.589 5.463 5.849 6.207 2.233 0.51 4.436 0.894 6.485 2.075 1.95 1.124 4.215 1.25 6.46 1.229 0.438-0.004 0.996 0.215 1.299 0.526 4.354 4.468 11.602 4.447 15.965-0.041 0.315-0.323 0.907-0.524 1.372-0.527 2.698-0.021 5.106-0.883 7.372-2.289 0.449-0.279 1.033-0.406 1.57-0.466 3.123-0.349 6.024-1.117 7.713-4.109 1.258-2.227 1.327-4.652 0.92-7.096-0.24-1.438-0.362-2.697 0.258-4.208 0.529-1.289 0.288-3.109-0.142-4.534-1.226-4.07-2.821-8.028-4.075-12.09-0.776-2.515-1.195-5.14-1.774-7.715 0.095-0.061 0.189-0.122 0.284-0.183z" stroke="#ded973" stroke-miterlimit="10" stroke-width="2" fill="none"/>
   </g>
   <g id="g108" transform="translate(785.72 505.14)">
    <path id="path110" d="m0 0c0.714-0.143 1.452-0.217 2.139-0.442 2.333-0.765 3.002-2.817 1.431-4.694-0.792-0.948-1.801-1.779-2.856-2.429-2.864-1.763-6.004-2.723-9.392-2.725-1.549-0.001-2.983 0.299-4.201 1.444-0.279 0.263-1.179 0.051-1.703-0.162-3.547-1.44-7.198-2.069-10.968-1.261-2.801 0.6-5.567 1.378-8.324 2.162-3.269 0.929-5.815 3.011-6.689 6.217-1.413 5.183-2.561 10.52-1.27 15.93 0.466 1.957 1.486 3.778 2.188 5.685 0.141 0.383 0.061 0.897-0.053 1.313-0.294 1.067-0.998 2.129-0.946 3.163 0.24 4.846 2.097 9.028 5.815 12.233 2.264 1.951 4.61 1.076 5.187-1.831 0.076-0.381 0.081-0.777 0.104-1.167 0.015-0.251 0.003-0.503 0.306-0.918 1.876 2.514 3.948 4.909 5.578 7.573 2.057 3.362 3.734 6.955 5.614 10.427 0.925 1.708 1.966 3.308 4.246 3.386 0.285 0.01 0.567 0.454 0.829 0.717 1.489 1.493 2.801 3.231 4.494 4.436 2.766 1.969 5.792 1.731 8.526-0.193 1.873-1.319 3.633-2.7 5.882-3.432 2.14-0.696 3.749-2.296 5.236-3.978 0.289-0.328 0.826-0.597 1.259-0.614 6.234-0.246 11.069-5.646 10.653-11.891-0.03-0.45 0.217-1.025 0.526-1.373 1.79-2.019 2.761-4.385 3.231-7.01 0.094-0.52 0.39-1.039 0.705-1.478 1.831-2.555 3.201-5.224 2.107-8.482-0.813-2.424-2.568-4.098-4.658-5.431-1.229-0.784-2.245-1.536-2.954-3.007-0.604-1.256-2.117-2.295-3.464-2.929-3.845-1.812-7.854-3.275-11.712-5.062-2.388-1.106-4.619-2.551-6.92-3.844l0.054-0.333z" stroke="#dc916f" stroke-miterlimit="10" stroke-width="2" fill="none"/>
   </g>
   <g id="g112" transform="translate(792.92 348.16)">
    <path id="path114" d="m0 0c0.292-0.667 0.655-1.314 0.865-2.006 0.711-2.349-0.586-4.074-3.025-3.864-1.23 0.105-2.49 0.455-3.627 0.946-3.087 1.334-5.675 3.357-7.619 6.131-0.889 1.268-1.467 2.615-1.227 4.269 0.055 0.379-0.634 0.995-1.11 1.303-3.214 2.079-5.823 4.709-7.324 8.261-1.115 2.638-2.064 5.35-3.004 8.058-1.113 3.211-0.868 6.49 1.257 9.045 3.435 4.131 7.148 8.132 12.321 10.178 1.87 0.74 3.947 0.949 5.911 1.468 0.395 0.104 0.77 0.465 1.045 0.797 0.706 0.852 1.172 2.038 2.048 2.589 4.108 2.583 8.599 3.46 13.356 2.253 2.898-0.735 3.527-3.159 1.476-5.299-0.269-0.281-0.59-0.512-0.896-0.755-0.197-0.156-0.41-0.291-0.577-0.777 3.136-0.094 6.286-0.418 9.404-0.225 3.933 0.243 7.838 0.93 11.76 1.381 1.93 0.222 3.838 0.287 5.209-1.535 0.172-0.228 0.697-0.204 1.064-0.268 2.077-0.363 4.253-0.442 6.211-1.137 3.199-1.137 4.74-3.751 4.732-7.095-0.005-2.291-0.128-4.524 0.563-6.786 0.656-2.153 0.269-4.388-0.256-6.571-0.102-0.425-0.015-1.019 0.22-1.384 3.374-5.248 1.723-12.305-3.631-15.547-0.386-0.234-0.715-0.766-0.823-1.218-0.626-2.625-2.008-4.777-3.888-6.668-0.373-0.374-0.628-0.915-0.807-1.425-1.043-2.965-2.444-5.618-5.74-6.591-2.452-0.724-4.83-0.247-7.12 0.7-1.347 0.557-2.546 0.959-4.158 0.695-1.375-0.225-3.094 0.419-4.386 1.158-3.69 2.11-7.188 4.555-10.864 6.691-2.276 1.322-4.739 2.32-7.118 3.464-0.081-0.079-0.161-0.157-0.242-0.236z" stroke="#de5965" stroke-miterlimit="10" stroke-width="2" fill="none"/>
   </g>
   <g id="g116" transform="translate(685.42 250.34)">
    <path id="path118" d="m0 0c-0.368-0.629-0.678-1.302-1.115-1.879-1.482-1.956-3.64-1.921-4.904 0.176-0.637 1.057-1.095 2.282-1.366 3.491-0.735 3.281-0.62 6.563 0.481 9.767 0.503 1.465 1.254 2.724 2.733 3.502 0.339 0.178 0.432 1.098 0.401 1.664-0.207 3.822 0.388 7.479 2.379 10.781 1.479 2.452 3.115 4.815 4.754 7.166 1.942 2.788 4.74 4.517 8.056 4.3 5.361-0.351 10.78-1.003 15.476-3.985 1.698-1.078 3.088-2.635 4.663-3.92 0.316-0.257 0.828-0.35 1.258-0.377 1.104-0.07 2.338 0.25 3.299-0.135 4.504-1.805 7.853-4.923 9.673-9.481 1.108-2.776-0.483-4.709-3.42-4.309-0.385 0.053-0.761 0.177-1.137 0.282-0.242 0.067-0.476 0.161-0.968 0.01 1.767-2.592 3.356-5.331 5.345-7.74 2.509-3.04 5.36-5.795 8.031-8.703 1.314-1.431 2.487-2.936 1.819-5.117-0.084-0.272 0.245-0.683 0.408-1.018 0.928-1.893 2.143-3.7 2.731-5.692 0.961-3.257-0.248-6.04-2.958-7.999-1.857-1.342-3.735-2.556-5.159-4.444-1.356-1.797-3.392-2.797-5.467-3.656-0.404-0.167-0.833-0.586-0.99-0.991-2.263-5.814-8.942-8.627-14.712-6.201-0.415 0.175-1.039 0.129-1.469-0.05-2.492-1.036-5.045-1.183-7.68-0.773-0.522 0.081-1.109-0.031-1.627-0.186-3.012-0.899-5.982-1.325-8.706 0.77-2.027 1.558-3.039 3.763-3.619 6.172-0.341 1.417-0.721 2.623-1.882 3.772-0.99 0.98-1.479 2.749-1.641 4.229-0.462 4.226-0.54 8.493-0.973 12.722-0.268 2.618-0.908 5.198-1.381 7.795l-0.333 0.057z" stroke="#d382b5" stroke-miterlimit="10" stroke-width="2" fill="none"/>
   </g>
   <g id="g120" transform="translate(538.22 266.56)">
    <path id="path122" d="m0 0c-0.725-0.072-1.452-0.217-2.175-0.202-2.454 0.049-3.694 1.815-2.741 4.07 0.481 1.138 1.202 2.228 2.022 3.158 2.222 2.523 4.946 4.359 8.184 5.351 1.481 0.454 2.941 0.587 4.44-0.152 0.344-0.17 1.142 0.296 1.582 0.653 2.97 2.414 6.278 4.083 10.12 4.412 2.853 0.245 5.726 0.311 8.592 0.367 3.397 0.067 6.441-1.18 8.214-3.99 2.867-4.544 5.525-9.311 5.872-14.863 0.126-2.007-0.317-4.047-0.43-6.076-0.023-0.407 0.204-0.876 0.435-1.24 0.592-0.934 1.576-1.744 1.829-2.748 1.187-4.705 0.633-9.247-1.984-13.398-1.595-2.529-4.094-2.378-5.496 0.234-0.184 0.342-0.305 0.719-0.441 1.085-0.088 0.235-0.15 0.48-0.561 0.789-1.058-2.953-2.34-5.849-3.12-8.874-0.984-3.816-1.538-7.742-2.32-11.612-0.386-1.904-0.914-3.738-3.07-4.479-0.27-0.093-0.41-0.6-0.584-0.929-0.987-1.863-1.734-3.909-3-5.556-2.07-2.691-5.033-3.349-8.211-2.308-2.177 0.713-4.263 1.519-6.627 1.562-2.25 0.041-4.257 1.1-6.171 2.274-0.372 0.229-0.964 0.329-1.384 0.218-6.033-1.587-12.235 2.164-13.664 8.258-0.103 0.439-0.507 0.916-0.904 1.159-2.302 1.407-3.922 3.386-5.14 5.758-0.241 0.47-0.676 0.88-1.106 1.208-2.497 1.908-4.588 4.06-4.495 7.495 0.069 2.556 1.258 4.671 2.867 6.556 0.946 1.109 1.698 2.125 1.945 3.739 0.211 1.378 1.355 2.814 2.457 3.814 3.147 2.857 6.553 5.428 9.72 8.265 1.961 1.756 3.672 3.79 5.494 5.699-0.049 0.101-0.099 0.202-0.149 0.303z" stroke="#976fad" stroke-miterlimit="10" stroke-width="2" fill="none"/>
   </g>
   <g id="g124" transform="translate(454.2 390.73)">
    <path id="path126" d="m0 0c-0.587 0.432-1.224 0.81-1.752 1.305-1.791 1.678-1.53 3.821 0.687 4.859 1.119 0.524 2.384 0.851 3.615 0.994 3.34 0.388 6.592-0.07 9.663-1.5 1.404-0.653 2.578-1.531 3.197-3.084 0.142-0.356 1.047-0.544 1.613-0.573 3.823-0.193 7.398-1.167 10.473-3.492 2.285-1.728 4.463-3.601 6.631-5.477 2.57-2.224 3.997-5.187 3.434-8.462-0.91-5.294-2.124-10.616-5.581-14.974-1.25-1.576-2.944-2.796-4.385-4.228-0.29-0.287-0.435-0.787-0.507-1.212-0.185-1.091 0.004-2.351-0.479-3.267-2.266-4.29-5.717-7.295-10.44-8.629-2.877-0.812-4.634 0.973-3.928 3.852 0.092 0.377 0.255 0.738 0.399 1.101 0.092 0.234 0.209 0.457 0.111 0.962-2.763-1.486-5.653-2.781-8.257-4.507-3.285-2.177-6.323-4.724-9.494-7.077-1.56-1.157-3.18-2.167-5.279-1.274-0.262 0.111-0.706-0.172-1.055-0.3-1.98-0.724-3.904-1.744-5.947-2.121-3.339-0.615-5.981 0.879-7.646 3.779-1.14 1.986-2.151 3.981-3.88 5.595-1.645 1.536-2.427 3.666-3.064 5.819-0.124 0.419-0.497 0.889-0.882 1.088-5.546 2.858-7.646 9.795-4.63 15.28 0.218 0.395 0.237 1.02 0.104 1.466-0.77 2.586-0.649 5.141 0.034 7.718 0.135 0.511 0.085 1.107-0.014 1.638-0.58 3.089-0.693 6.088 1.675 8.578 1.761 1.853 4.06 2.629 6.516 2.954 1.446 0.191 2.685 0.443 3.949 1.477 1.078 0.882 2.888 1.184 4.377 1.19 4.251 0.018 8.502-0.351 12.754-0.362 2.632-0.007 5.264 0.36 7.896 0.559 0.031 0.108 0.061 0.217 0.092 0.325z" stroke="#3fabe2" stroke-miterlimit="10" stroke-width="2" fill="none"/>
   </g>
   <g id="g128" transform="translate(504.35 535.97)">
    <path id="path130" d="m0 0c0.055 0.727 0.038 1.467 0.178 2.177 0.475 2.408 2.43 3.322 4.485 1.992 1.037-0.671 1.985-1.57 2.759-2.539 2.099-2.627 3.434-5.627 3.848-8.989 0.19-1.537 0.068-2.998-0.921-4.346-0.226-0.309 0.094-1.176 0.369-1.671 1.862-3.345 2.93-6.892 2.588-10.732-0.254-2.853-0.689-5.694-1.131-8.526-0.524-3.357-2.28-6.138-5.356-7.396-4.972-2.034-10.129-3.824-15.656-3.203-1.999 0.225-3.931 1.016-5.91 1.479-0.397 0.094-0.897-0.048-1.296-0.212-1.023-0.422-1.991-1.25-3.024-1.325-4.839-0.352-9.216 0.982-12.85 4.281-2.214 2.009-1.631 4.445 1.185 5.372 0.368 0.122 0.761 0.175 1.145 0.246 0.247 0.045 0.499 0.064 0.874 0.415-2.724 1.555-5.353 3.32-8.197 4.614-3.587 1.632-7.358 2.858-11.033 4.301-1.808 0.71-3.522 1.548-3.878 3.801-0.044 0.282-0.52 0.508-0.813 0.736-1.664 1.296-3.548 2.387-4.95 3.92-2.291 2.505-2.425 5.537-0.848 8.486 1.081 2.02 2.237 3.935 2.689 6.256 0.431 2.209 1.823 4.001 3.311 5.682 0.29 0.327 0.491 0.892 0.456 1.324-0.516 6.218 4.255 11.675 10.504 12.023 0.45 0.025 0.991 0.341 1.298 0.689 1.786 2.024 4.016 3.275 6.564 4.062 0.505 0.156 0.984 0.514 1.382 0.88 2.312 2.128 4.795 3.813 8.162 3.125 2.505-0.512 4.38-2.05 5.958-3.961 0.928-1.125 1.798-2.042 3.345-2.566 1.319-0.446 2.535-1.822 3.329-3.082 2.267-3.595 4.208-7.396 6.451-11.007 1.389-2.236 3.095-4.274 4.659-6.401 0.108 0.032 0.216 0.063 0.324 0.095z" stroke="#7ec18d" stroke-miterlimit="10" stroke-width="2" fill="none"/>
   </g>
  </g>
 </g>
</svg>
